<?xml version="1.0" encoding="UTF-8"?>
<svg width="16px" height="17px" viewBox="0 0 16 17" version="1.1" xmlns="http://www.w3.org/2000/svg" xmlns:xlink="http://www.w3.org/1999/xlink">
    <!-- Generator: Sketch 52.5 (67469) - http://www.bohemiancoding.com/sketch -->
    <title>Group</title>
    <desc>Created with Sketch.</desc>
    <g id="Page-1" stroke="none" stroke-width="1" fill="none" fill-rule="evenodd">
        <g id="home2-@2x" transform="translate(-1237.000000, -87.000000)" fill="#000000" fill-rule="nonzero">
            <g id="Group-34" transform="translate(80.000000, 30.000000)">
                <g id="Group-26" transform="translate(1157.000000, 57.000000)">
                    <g id="Group">
                        <path d="M7.99999861,0 C5.94447701,0 4.26671008,1.67123964 4.26671008,3.71875929 C4.26671008,5.76628159 5.94447701,7.43751858 7.99999861,7.43751858 C10.0555199,7.43751858 11.7332871,5.76628159 11.7332871,3.71875929 C11.7332871,1.67123964 10.0555199,0 7.99999861,0 Z M7.99999861,1.06250265 C9.47905701,1.06250265 10.6666333,2.24545858 10.6666333,3.71875929 C10.6666333,5.19206265 9.47905701,6.37501592 7.99999861,6.37501592 C6.52093994,6.37501592 5.33336394,5.19206265 5.33336394,3.71875929 C5.33336394,2.24545858 6.52093994,1.06250265 7.99999861,1.06250265 Z M7.99999861,8.50003185 C5.90551621,8.50003185 3.83801674,9.30976513 2.35006634,10.7246468 C0.864159678,12.1375894 0.00234181213,14.1116131 9.43454642e-05,16.1201681 C7.30121309e-05,16.1228243 0.000112745464,16.1257462 9.43454642e-05,16.1284025 C-0.000678987869,16.247084 0.00340901213,16.3667484 0.00842767879,16.4853502 C0.0174602606,16.772237 0.253605378,17.0001123 0.541754612,17 L15.4582426,17 C15.7463918,17.0001123 15.982537,16.772237 15.9915695,16.4853502 C15.9965882,16.3667484 16.0006895,16.247084 15.9999029,16.1284025 C15.9999031,16.1254806 15.9999061,16.1228243 15.9999029,16.1201681 C15.9976629,14.1116131 15.1358378,12.1375894 13.6499309,10.7246468 C12.1619805,9.30976513 10.0944813,8.50003185 7.99999861,8.50003185 Z M7.99999861,9.56253451 C9.81503861,9.56253451 11.6318485,10.2745707 12.9082733,11.4883206 C14.1371223,12.6568079 14.863473,14.2951604 14.9165826,15.9375504 L1.08341461,15.9375504 C1.13652421,14.2951604 1.86287488,12.6568079 3.09172394,11.4883206 C4.36814874,10.2745707 6.18495888,9.56253451 7.99999861,9.56253451 Z" id="Shape"></path>
                    </g>
                </g>
            </g>
        </g>
    </g>
</svg>