<?xml version="1.0" encoding="UTF-8"?>
<svg width="21px" height="21px" viewBox="0 0 21 21" version="1.1" xmlns="http://www.w3.org/2000/svg" xmlns:xlink="http://www.w3.org/1999/xlink">
    <!-- Generator: Sketch 52.5 (67469) - http://www.bohemiancoding.com/sketch -->
    <title>Group 13</title>
    <desc>Created with Sketch.</desc>
    <g id="Page-1" stroke="none" stroke-width="1" fill="none" fill-rule="evenodd">
        <g id="home2-@2x" transform="translate(-456.000000, -7607.000000)">
            <g id="Group-13" transform="translate(443.000000, 7594.000000)">
                <polygon id="Rectangle-5-Copy-2" points="0 0 47 0 47 47 0 47"></polygon>
                <path d="M19.2292199,13.2868996 C17.5459893,13.3628474 16.0870522,13.7744024 14.9089966,14.9474882 C13.7268255,16.1267319 13.320422,17.5912931 13.2442856,19.2570133 C13.1969576,20.2966773 12.9201917,28.1511178 13.72271,30.2109456 C14.2638954,31.6005853 15.3298042,32.6689863 16.7321534,33.2119105 C17.3865145,33.4664383 18.1334738,33.6388603 19.2292199,33.6891501 C28.3913033,34.1037841 31.7876018,33.8779933 33.2197882,30.2109456 C33.473919,29.558205 33.6488268,28.812069 33.6971837,27.7190364 C34.1159336,18.5334565 33.6292783,16.5423923 32.0324727,14.9474882 C30.7659343,13.6840861 29.2761312,12.8240285 19.2292199,13.2868996 M19.3135872,31.8417709 C18.3104394,31.7966128 17.7661674,31.6293223 17.4029764,31.4887162 C16.4893402,31.1336089 15.8030842,30.4500786 15.450182,29.5417838 C14.8390334,27.9766431 15.0417208,20.5429945 15.0962508,19.3401454 C15.1497521,18.161928 15.3884498,17.0853165 16.2197764,16.2539958 C17.248646,15.2276741 18.5779454,14.7247764 27.628911,15.1332525 C28.8100533,15.1866212 29.8893374,15.4247279 30.7227218,16.2539958 C31.7515913,17.2803176 32.2619106,18.6196675 31.8462473,27.6359043 C31.8009771,28.636568 31.6332713,29.1794922 31.4923162,29.5417838 C30.5611893,31.9279819 28.4190828,32.2594839 19.3135872,31.8417709 M27.7287113,18.0090061 C27.7287113,18.6884311 28.2812143,19.2405922 28.9633548,19.2405922 C29.6454953,19.2405922 30.1990272,18.6884311 30.1990272,18.0090061 C30.1990272,17.3295811 29.6454953,16.7774199 28.9633548,16.7774199 C28.2812143,16.7774199 27.7287113,17.3295811 27.7287113,18.0090061 M18.1880039,23.4875117 C18.1880039,26.3981602 20.553375,28.757674 23.4712491,28.757674 C26.3891232,28.757674 28.7544943,26.3981602 28.7544943,23.4875117 C28.7544943,20.5768631 26.3891232,18.2183757 23.4712491,18.2183757 C20.553375,18.2183757 18.1880039,20.5768631 18.1880039,23.4875117 M20.0420268,23.4875117 C20.0420268,21.5990796 21.5771002,20.0667812 23.4712491,20.0667812 C25.365398,20.0667812 26.9004713,21.5990796 26.9004713,23.4875117 C26.9004713,25.3769701 25.365398,26.9092685 23.4712491,26.9092685 C21.5771002,26.9092685 20.0420268,25.3769701 20.0420268,23.4875117" id="instagram-[#167]-copy-2" fill="#FFFFFF"></path>
            </g>
        </g>
    </g>
</svg>