<?xml version="1.0" encoding="UTF-8"?>
<svg width="27px" height="27px" viewBox="0 0 27 27" version="1.1" xmlns="http://www.w3.org/2000/svg" xmlns:xlink="http://www.w3.org/1999/xlink">
    <!-- Generator: Sketch 52.5 (67469) - http://www.bohemiancoding.com/sketch -->
    <title>linkedin [#161]</title>
    <desc>Created with Sketch.</desc>
    <g id="Page-1" stroke="none" stroke-width="1" fill="none" fill-rule="evenodd">
        <g id="home2-@2x" transform="translate(-1095.000000, -8112.000000)" fill="#FFFFFF">
            <g id="Group-22" transform="translate(735.000000, 8075.000000)">
                <g id="Group-19-Copy-4" transform="translate(360.000000, 37.000000)">
                    <g id="Group-16">
                        <path d="M27,27 L21.6,27 L21.6,17.55135 C21.6,14.95935 20.45655,13.5135 18.4059,13.5135 C16.17435,13.5135 14.85,15.0201 14.85,17.55135 L14.85,27 L9.45,27 L9.45,9.45 L14.85,9.45 L14.85,11.4237 C14.85,11.4237 16.54425,8.451 20.36205,8.451 C24.1812,8.451 27,10.7811 27,15.6033 L27,27 L27,27 Z M3.2967,6.64335 C1.47555,6.64335 0,5.15565 0,3.321 C0,1.4877 1.47555,0 3.2967,0 C5.1165,0 6.59205,1.4877 6.59205,3.321 C6.5934,5.15565 5.1165,6.64335 3.2967,6.64335 L3.2967,6.64335 Z M0,27 L6.75,27 L6.75,9.45 L0,9.45 L0,27 Z" id="linkedin-[#161]"></path>
                    </g>
                </g>
            </g>
        </g>
    </g>
</svg>