<?xml version="1.0" encoding="UTF-8"?>
<svg width="99px" height="35px" viewBox="0 0 99 35" version="1.1" xmlns="http://www.w3.org/2000/svg" xmlns:xlink="http://www.w3.org/1999/xlink">
    <!-- Generator: Sketch 52.5 (67469) - http://www.bohemiancoding.com/sketch -->
    <title>Fill 4 Copy</title>
    <desc>Created with Sketch.</desc>
    <g id="Page-1" stroke="none" stroke-width="1" fill="none" fill-rule="evenodd">
        <g id="home2-@2x" transform="translate(-131.000000, -3120.000000)" fill="#FFFFFF">
            <g id="Group-31" transform="translate(0.000000, 2949.000000)">
                <g id="Group-4-Copy-5">
                    <path d="M228.086815,171.034832 C227.966254,171.019593 227.845693,171 227.708542,171 L222.399441,171 L215.23658,171 L209.92748,171 C209.793646,171 209.674191,171.019593 209.549206,171.034832 C209.026039,171.109938 208.622326,171.328726 208.374568,171.656363 C208.342492,171.699903 208.311522,171.747797 208.279446,171.794602 C202.189466,180.645162 191.926311,186.50127 180.270624,186.50127 C168.651437,186.50127 158.421464,180.685436 152.324847,171.881682 C152.248529,171.771744 152.168892,171.662894 152.095892,171.554044 C151.841498,171.28192 151.476497,171.100142 151.009739,171.034832 C150.88586,171.019593 150.765299,171 150.632571,171 L145.323471,171 L138.159504,171 L132.850403,171 C132.714358,171 132.593797,171.019593 132.473236,171.034832 C131.405886,171.185044 130.83737,171.946991 131.040885,172.940788 C131.078491,173.116036 131.132688,173.294549 131.218961,173.481771 C131.218961,173.481771 131.351689,173.772399 131.58728,174.260045 C132.006478,175.134107 132.796206,176.733108 133.917754,178.836082 C134.377876,179.639392 134.857907,180.42964 135.355635,181.207914 C144.789243,195.826414 161.371333,205.537975 180.270624,205.537975 C199.169915,205.537975 215.747581,195.826414 225.181189,181.207914 C225.73975,180.34256 226.280615,179.464144 226.788298,178.563958 C227.127859,177.923922 227.44198,177.320896 227.715178,176.786444 C227.794814,176.635143 227.873345,176.4784 227.949663,176.324922 C228.312452,175.613046 228.60777,175.013284 228.830089,174.556116 C229.159696,173.875806 229.34109,173.481771 229.34109,173.481771 C229.439529,173.269514 229.490408,173.069231 229.524696,172.875478 C229.690606,171.916514 229.130938,171.181779 228.086815,171.034832" id="Fill-4-Copy"></path>
                </g>
            </g>
        </g>
    </g>
</svg>