<?xml version="1.0" encoding="UTF-8"?>
<svg width="26px" height="18px" viewBox="0 0 26 18" version="1.1" xmlns="http://www.w3.org/2000/svg" xmlns:xlink="http://www.w3.org/1999/xlink">
    <!-- Generator: Sketch 52.5 (67469) - http://www.bohemiancoding.com/sketch -->
    <title></title>
    <desc>Created with Sketch.</desc>
    <g id="Page-1" stroke="none" stroke-width="1" fill="none" fill-rule="evenodd">
        <g id="home2-@2x" transform="translate(-785.000000, -7987.000000)" fill="#FFFFFF">
            <g id="Group-18" transform="translate(735.000000, 7594.000000)">
                <path d="M74.9862637,395.802198 C75.2042135,396.642861 75.3598896,397.919405 75.4532967,399.631868 L75.5,401.967033 L75.4532967,404.302198 C75.3598896,406.045796 75.2042135,407.337908 74.9862637,408.178571 C74.8305853,408.707878 74.5503683,409.174906 74.1456044,409.57967 C73.7408405,409.984434 73.2582446,410.264651 72.6978022,410.42033 C71.8882743,410.638279 69.9890259,410.793956 67,410.887363 L62.75,410.934066 L58.5,410.887363 C55.5109741,410.793956 53.6117257,410.638279 52.8021978,410.42033 C52.2417554,410.264651 51.7591595,409.984434 51.3543956,409.57967 C50.9496317,409.174906 50.6694147,408.707878 50.5137363,408.178571 C50.2957865,407.337908 50.1401104,406.045796 50.0467033,404.302198 L50,401.967033 C50,401.282048 50.0155676,400.503667 50.0467033,399.631868 C50.1401104,397.919405 50.2957865,396.642861 50.5137363,395.802198 C50.6694147,395.241755 50.9496317,394.75916 51.3543956,394.354396 C51.7591595,393.949632 52.2417554,393.669415 52.8021978,393.513736 C53.6117257,393.295786 55.5109741,393.14011 58.5,393.046703 L62.75,393 L67,393.046703 C69.9890259,393.14011 71.8882743,393.295786 72.6978022,393.513736 C73.2582446,393.669415 73.7408405,393.949632 74.1456044,394.354396 C74.5503683,394.75916 74.8305853,395.241755 74.9862637,395.802198 Z M60.1346154,405.796703 L66.8131868,401.967033 L60.1346154,398.184066 L60.1346154,405.796703 Z" id=""></path>
            </g>
        </g>
    </g>
</svg>