<?xml version="1.0" encoding="UTF-8"?>
<svg width="21px" height="17px" viewBox="0 0 21 17" version="1.1" xmlns="http://www.w3.org/2000/svg" xmlns:xlink="http://www.w3.org/1999/xlink">
    <!-- Generator: Sketch 52.5 (67469) - http://www.bohemiancoding.com/sketch -->
    <title>noun_1281519_cc</title>
    <desc>Created with Sketch.</desc>
    <g id="Page-1" stroke="none" stroke-width="1" fill="none" fill-rule="evenodd">
        <g id="home2-@2x" transform="translate(-1283.000000, -87.000000)" fill="#231F20">
            <g id="Group-34" transform="translate(80.000000, 30.000000)">
                <g id="Group-26" transform="translate(1157.000000, 57.000000)">
                    <g id="noun_1281519_cc" transform="translate(46.000000, 0.000000)">
                        <path d="M7.77636364,16.9056377 C7.10907273,16.9056377 6.50490909,16.6437391 6.06747273,16.2203406 C5.63016364,15.7970652 5.35958182,15.2121667 5.35958182,14.566413 C5.35958182,13.9206594 5.63016364,13.3357609 6.06747273,12.9123623 C6.50490909,12.4889638 7.10907273,12.2270652 7.77636364,12.2270652 C8.44365455,12.2270652 9.04781818,12.4889638 9.48512727,12.9123623 C9.92243636,13.3357609 10.1930182,13.9206594 10.1930182,14.566413 C10.1930182,15.2121667 9.92256364,15.7970652 9.48512727,16.2203406 C9.04781818,16.6437391 8.44365455,16.9056377 7.77636364,16.9056377 Z M0.604545455,1.27155072 C0.247672727,1.20971014 0.0101818182,0.879442029 0.0742,0.533898551 C0.138218182,0.188355072 0.479436364,-0.0413913043 0.836309091,0.0205724638 C4.38734545,0.64365942 5.16943636,2.72665217 6.90696364,7.35385507 C7.0098,7.62782609 7.12027273,7.92163043 7.35381818,8.53658696 C7.61256364,9.21732609 8.21723636,9.74617391 9.00683636,10.1216522 C9.89049091,10.541971 10.9926727,10.7690072 12.1192909,10.8064565 C13.2516364,10.844029 14.3984909,10.6888116 15.365,10.3447464 C16.3214545,10.0041304 17.0830545,9.48563043 17.4312727,8.79934783 C17.6918,8.2863913 17.9220364,7.62006522 18.1596545,6.93316667 C18.5706182,5.74439855 19.0014364,4.49822464 19.7229455,3.61767391 C19.9489818,3.34247101 20.3628727,3.29664493 20.6473273,3.51555072 C20.9315273,3.73433333 20.9787455,4.13494203 20.7528364,4.41014493 C20.1731091,5.11773913 19.7802182,6.25341304 19.4057818,7.33685507 C19.1559455,8.05972464 18.9133636,8.76115942 18.6105818,9.35763768 C18.0989455,10.3656884 17.0745273,11.0934855 15.8180909,11.5409058 C14.6970727,11.9400362 13.3759818,12.1203841 12.0780545,12.0772681 C10.7744,12.034029 9.48372727,11.7641232 8.43029091,11.2631159 C7.34592727,10.7474493 6.50287273,9.98774638 6.11812727,8.97526087 C6.03769091,8.76362319 5.85149091,8.26766667 5.67114545,7.78747826 C4.11129091,3.63368841 3.409,1.76356522 0.604545455,1.27155072 Z M6.99949091,15.3184783 C7.19829091,15.5107754 7.47294545,15.6297754 7.77636364,15.6297754 C8.07965455,15.6297754 8.35443636,15.5106522 8.55323636,15.3184783 C8.75203636,15.126058 8.87498182,14.8602174 8.87498182,14.5665362 C8.87498182,14.2727319 8.75203636,14.0070145 8.55323636,13.8145942 C8.35443636,13.6220507 8.07978182,13.5031739 7.77636364,13.5031739 C7.47294545,13.5031739 7.19829091,13.6221739 6.99949091,13.8145942 C6.80069091,14.0070145 6.67787273,14.2727319 6.67787273,14.5665362 C6.67787273,14.8602174 6.80081818,15.126058 6.99949091,15.3184783 Z M17.3223273,16.9056377 C16.6551636,16.9056377 16.0508727,16.6437391 15.6134364,16.2203406 C15.1761273,15.7970652 14.9055455,15.2121667 14.9055455,14.566413 C14.9055455,13.9206594 15.1761273,13.3357609 15.6134364,12.9123623 C16.0508727,12.4889638 16.6551636,12.2270652 17.3223273,12.2270652 C17.9896182,12.2270652 18.5937818,12.4889638 19.0312182,12.9123623 C19.4686545,13.3357609 19.7392364,13.9206594 19.7392364,14.566413 C19.7392364,15.2121667 19.4686545,15.7970652 19.0312182,16.2203406 C18.5937818,16.6437391 17.9896182,16.9056377 17.3223273,16.9056377 Z M16.5454545,15.3184783 C16.7443818,15.5107754 17.0189091,15.6297754 17.3223273,15.6297754 C17.6257455,15.6297754 17.9004,15.5106522 18.0992,15.3184783 C18.2978727,15.126058 18.4208182,14.8602174 18.4208182,14.5665362 C18.4208182,14.2727319 18.2977455,14.0070145 18.0992,13.8145942 C17.9002727,13.6220507 17.6256182,13.5031739 17.3223273,13.5031739 C17.0190364,13.5031739 16.7443818,13.6221739 16.5454545,13.8145942 C16.3466545,14.0070145 16.2238364,14.2727319 16.2238364,14.5665362 C16.2238364,14.8602174 16.3466545,15.126058 16.5454545,15.3184783 Z" id="Shape"></path>
                    </g>
                </g>
            </g>
        </g>
    </g>
</svg>